<?xml version="1.0" encoding="UTF-8"?>
<svg id="Layer_1" data-name="Layer 1" xmlns="http://www.w3.org/2000/svg" viewBox="0 0 841.89 378.65">
  <defs>
    <style>
      .cls-1 {
        fill: #faad1b;
      }

      .cls-2 {
        fill: #ed2330;
      }

      .cls-3 {
        fill: #fff;
      }

      .cls-4 {
        fill: #231f20;
      }

      .cls-5 {
        fill: #8872b3;
      }

      .cls-6 {
        fill: #48bc97;
      }
    </style>
  </defs>
  <rect class="cls-4" x="-11.36" y="-9.87" width="864.61" height="399.05"/>
  <g>
    <g>
      <path class="cls-3" d="M299.34,179.25h0c2.76,0,4.99,2.23,4.99,4.99v12.47h20.08v-12.47c0-2.76,2.23-4.99,4.99-4.99h0c2.76,0,4.99,2.23,4.99,4.99v33.68c0,2.76-2.23,4.99-4.99,4.99h0c-2.76,0-4.99-2.23-4.99-4.99v-12.47h-20.08v12.47c0,2.76-2.23,4.99-4.99,4.99h0c-2.76,0-4.99-2.23-4.99-4.99v-33.68c0-2.76,2.23-4.99,4.99-4.99Z"/>
      <path class="cls-3" d="M363.49,190.16c-.87,0-1.87,1.06-2.62,3.12l-9.71,26.37c-.72,1.96-2.58,3.26-4.67,3.26h0c-3.46,0-5.87-3.45-4.67-6.69l11.38-30.91c1.56-4.18,5.8-6.99,10.29-6.99,4.74,0,8.67,2.81,10.23,7.05l11.33,30.85c1.19,3.25-1.21,6.69-4.67,6.69h0c-2.09,0-3.95-1.3-4.67-3.26l-9.65-26.3c-.75-2.12-1.62-3.18-2.56-3.18Z"/>
      <path class="cls-3" d="M410.5,211.81l-5.36-23.39c-.19-.69-.75-1.37-1.5-1.37-.94,0-1.19,1.06-1.19,1.81v29.06c0,2.76-2.23,4.99-4.99,4.99h0c-2.76,0-4.99-2.23-4.99-4.99v-29.5c0-7.61,3.5-10.1,10.73-10.1,5.3,0,9.48,1.44,10.79,7.05l5.36,22.76c.25,1.12,.37,2.75,1.87,2.75s1.62-1.62,1.87-2.75l5.36-22.76c1.31-5.61,5.49-7.05,10.79-7.05,7.23,0,10.73,2.5,10.73,10.1v29.5c0,2.76-2.23,4.99-4.99,4.99h0c-2.76,0-4.99-2.23-4.99-4.99v-29.06c0-.75-.25-1.81-1.19-1.81-.75,0-1.31,.69-1.5,1.37l-5.36,23.39c-1.37,6.05-5.36,7.67-11.22,7.67s-8.86-1.62-10.23-7.67Z"/>
      <path class="cls-3" d="M464.92,179.25h0c2.76,0,4.99,2.23,4.99,4.99v33.68c0,2.76-2.23,4.99-4.99,4.99h0c-2.76,0-4.99-2.23-4.99-4.99v-33.68c0-2.76,2.23-4.99,4.99-4.99Z"/>
      <path class="cls-3" d="M491.5,204.2c0,7.11,2.06,9.98,9.42,9.98h5.99c2.41,0,4.36,1.95,4.36,4.36h0c0,2.41-1.95,4.36-4.36,4.36h-7.05c-12.97,0-18.34-5.36-18.34-18.52v-20.15c0-2.76,2.23-4.99,4.99-4.99h0c2.76,0,4.99,2.23,4.99,4.99v19.96Z"/>
      <path class="cls-3" d="M519.75,187.98h-8.11c-2.41,0-4.37-1.95-4.37-4.37h0c0-2.41,1.95-4.37,4.37-4.37h26.2c2.41,0,4.37,1.95,4.37,4.37h0c0,2.41-1.95,4.37-4.37,4.37h-8.11v29.93c0,2.76-2.23,4.99-4.99,4.99h0c-2.76,0-4.99-2.23-4.99-4.99v-29.93Z"/>
      <path class="cls-3" d="M563.39,179.25h8.54c13.22,0,18.46,8.23,18.46,21.95s-5.49,21.7-18.46,21.7h-8.54c-12.97,0-18.46-8.11-18.46-21.7s5.11-21.95,18.46-21.95Zm1.06,34.93h6.36c7.36,0,9.6-4.8,9.6-12.91s-2.06-13.29-9.6-13.29h-6.36c-7.61,0-9.54,4.93-9.54,13.29s2.18,12.91,9.54,12.91Z"/>
      <path class="cls-3" d="M599.1,188.42c0-7.61,3.5-10.1,10.73-10.1,5.3,0,9.1,1.62,10.79,7.05l8.86,28.38c.25,.75,.75,1.37,1.5,1.37,.94,0,1.19-1.06,1.19-1.81v-29.06c0-2.76,2.23-4.99,4.99-4.99h0c2.76,0,4.99,2.23,4.99,4.99v29.5c0,7.61-3.49,10.1-10.73,10.1-5.3,0-9.04-1.56-10.79-7.05l-8.85-28.38c-.19-.69-.75-1.37-1.5-1.37-.94,0-1.19,1.06-1.19,1.81v29.06c0,2.76-2.23,4.99-4.99,4.99h0c-2.76,0-4.99-2.23-4.99-4.99v-29.5Z"/>
    </g>
    <polygon class="cls-6" points="186.5 222.91 194.9 198.06 209.04 198.06 200.65 222.91 186.5 222.91"/>
    <polygon class="cls-2" points="236.48 222.91 259.6 155.48 273.75 155.48 250.63 222.91 236.48 222.91"/>
    <polygon class="cls-1" points="211.49 222.91 219.89 198.06 234.03 198.06 225.64 222.91 211.49 222.91"/>
    <polygon class="cls-5" points="223.28 189.26 231.68 164.42 245.82 164.42 237.43 189.26 223.28 189.26"/>
    <path class="cls-3" d="M646.05,216.45c.25-.59,.59-1.11,1.02-1.54s.95-.77,1.54-1.01c.59-.24,1.23-.36,1.91-.36s1.33,.12,1.92,.36,1.1,.58,1.54,1.01,.78,.95,1.03,1.54c.24,.59,.37,1.24,.37,1.94s-.12,1.35-.37,1.94c-.25,.59-.59,1.11-1.03,1.54-.44,.44-.95,.77-1.54,1.01-.59,.24-1.23,.36-1.92,.36s-1.32-.12-1.91-.36c-.59-.24-1.11-.57-1.54-1.01-.44-.44-.78-.95-1.02-1.54-.25-.59-.37-1.24-.37-1.94s.12-1.35,.37-1.94Zm.68,3.61c.21,.51,.5,.95,.87,1.33,.38,.38,.81,.67,1.31,.87,.5,.21,1.04,.31,1.62,.31s1.13-.1,1.62-.31,.93-.5,1.31-.87c.37-.38,.66-.82,.87-1.33,.21-.51,.31-1.06,.31-1.66s-.1-1.16-.31-1.67c-.21-.51-.5-.95-.87-1.33-.37-.38-.81-.67-1.31-.88-.5-.21-1.04-.31-1.62-.31s-1.13,.1-1.62,.31c-.5,.21-.93,.5-1.31,.88-.37,.38-.66,.82-.87,1.33-.21,.51-.31,1.06-.31,1.67s.1,1.16,.31,1.66Zm3.07-4.63v5.66h-1.16v-5.66h1.16Zm-.46,0h1.2c.67,0,1.19,.17,1.56,.49s.56,.74,.56,1.25c0,.54-.19,.98-.56,1.31-.37,.33-.89,.5-1.56,.5h-1.2v-.92h1.13c.31,0,.55-.07,.73-.21,.18-.14,.27-.34,.27-.61s-.09-.48-.27-.62c-.18-.13-.42-.2-.73-.2h-1.13v-.99Zm1.86,3.14l1.74,2.52h-1.37l-1.47-2.52h1.1Z"/>
  </g>
</svg>